<mxfile host="Electron" modified="2024-06-11T14:24:28.290Z" agent="Mozilla/5.0 (Windows NT 10.0; Win64; x64) AppleWebKit/537.36 (KHTML, like Gecko) draw.io/24.5.1 Chrome/124.0.6367.207 Electron/30.0.6 Safari/537.36" etag="QUm2obX-G0duonIE4WxM" version="24.5.1" type="device">
  <diagram name="Page-1" id="e7e014a7-5840-1c2e-5031-d8a46d1fe8dd">
    <mxGraphModel dx="1235" dy="731" grid="1" gridSize="10" guides="1" tooltips="1" connect="1" arrows="1" fold="1" page="1" pageScale="1" pageWidth="1169" pageHeight="826" background="none" math="0" shadow="0">
      <root>
        <mxCell id="0" />
        <mxCell id="1" parent="0" />
        <mxCell id="2" value="Cliente" style="swimlane;whiteSpace=wrap" parent="1" vertex="1">
          <mxGeometry x="164.5" y="128" width="280" height="572" as="geometry" />
        </mxCell>
        <mxCell id="CCyuXVUDyt8B1GG4eILW-44" value="Introducir credenciales" style="glass=0;rounded=1;whiteSpace=wrap;" parent="2" vertex="1">
          <mxGeometry x="85" y="202" width="110" height="50" as="geometry" />
        </mxCell>
        <mxCell id="3" value="Sistema" style="swimlane;whiteSpace=wrap" parent="1" vertex="1">
          <mxGeometry x="444.5" y="128" width="255.5" height="572" as="geometry">
            <mxRectangle x="444.5" y="128" width="80" height="30" as="alternateBounds" />
          </mxGeometry>
        </mxCell>
        <mxCell id="og35MtVwk3N-1ii6NnPK-43" style="edgeStyle=orthogonalEdgeStyle;rounded=0;orthogonalLoop=1;jettySize=auto;html=1;" edge="1" parent="3" source="CCyuXVUDyt8B1GG4eILW-48" target="7">
          <mxGeometry relative="1" as="geometry">
            <Array as="points">
              <mxPoint x="-244" y="310" />
              <mxPoint x="-244" y="112" />
            </Array>
          </mxGeometry>
        </mxCell>
        <mxCell id="CCyuXVUDyt8B1GG4eILW-48" value="Dar mensaje de error" style="glass=0;rounded=1;whiteSpace=wrap;" parent="3" vertex="1">
          <mxGeometry x="5.5" y="285" width="110" height="50" as="geometry" />
        </mxCell>
        <mxCell id="38" value="" style="ellipse;shape=endState;fillColor=#000000;strokeColor=#000000;" parent="3" vertex="1">
          <mxGeometry x="125.5" y="502" width="30" height="30" as="geometry" />
        </mxCell>
        <mxCell id="CCyuXVUDyt8B1GG4eILW-43" value="" style="edgeStyle=orthogonalEdgeStyle;rounded=0;orthogonalLoop=1;jettySize=auto;html=1;" parent="3" source="5" target="7" edge="1">
          <mxGeometry relative="1" as="geometry" />
        </mxCell>
        <mxCell id="5" value="" style="ellipse;shape=startState;fillColor=#000000;strokeColor=#000000;" parent="3" vertex="1">
          <mxGeometry x="112.75" y="42" width="30" height="30" as="geometry" />
        </mxCell>
        <mxCell id="7" value="Mostrar pantalla de login" style="glass=0;rounded=1;whiteSpace=wrap;" parent="3" vertex="1">
          <mxGeometry x="72.75" y="102" width="110" height="50" as="geometry" />
        </mxCell>
        <mxCell id="og35MtVwk3N-1ii6NnPK-41" style="edgeStyle=orthogonalEdgeStyle;rounded=0;orthogonalLoop=1;jettySize=auto;html=1;" edge="1" parent="3" source="og35MtVwk3N-1ii6NnPK-38" target="CCyuXVUDyt8B1GG4eILW-48">
          <mxGeometry relative="1" as="geometry">
            <Array as="points">
              <mxPoint x="140" y="272" />
              <mxPoint x="61" y="272" />
            </Array>
          </mxGeometry>
        </mxCell>
        <mxCell id="og35MtVwk3N-1ii6NnPK-44" style="edgeStyle=orthogonalEdgeStyle;rounded=0;orthogonalLoop=1;jettySize=auto;html=1;" edge="1" parent="3" source="og35MtVwk3N-1ii6NnPK-38" target="og35MtVwk3N-1ii6NnPK-39">
          <mxGeometry relative="1" as="geometry" />
        </mxCell>
        <mxCell id="og35MtVwk3N-1ii6NnPK-38" value="Validad credenciales" style="rhombus;whiteSpace=wrap;html=1;" vertex="1" parent="3">
          <mxGeometry x="87.5" y="193" width="105" height="68" as="geometry" />
        </mxCell>
        <mxCell id="og35MtVwk3N-1ii6NnPK-46" style="edgeStyle=orthogonalEdgeStyle;rounded=0;orthogonalLoop=1;jettySize=auto;html=1;" edge="1" parent="3" source="og35MtVwk3N-1ii6NnPK-39" target="38">
          <mxGeometry relative="1" as="geometry" />
        </mxCell>
        <mxCell id="og35MtVwk3N-1ii6NnPK-39" value="Mostrar pantalla principal" style="glass=0;rounded=1;whiteSpace=wrap;" vertex="1" parent="3">
          <mxGeometry x="85.5" y="402" width="110" height="50" as="geometry" />
        </mxCell>
        <mxCell id="CCyuXVUDyt8B1GG4eILW-45" value="" style="edgeStyle=orthogonalEdgeStyle;rounded=0;orthogonalLoop=1;jettySize=auto;html=1;" parent="1" source="7" target="CCyuXVUDyt8B1GG4eILW-44" edge="1">
          <mxGeometry relative="1" as="geometry" />
        </mxCell>
        <mxCell id="CCyuXVUDyt8B1GG4eILW-47" value="" style="edgeStyle=orthogonalEdgeStyle;rounded=0;orthogonalLoop=1;jettySize=auto;html=1;" parent="1" source="CCyuXVUDyt8B1GG4eILW-44" target="og35MtVwk3N-1ii6NnPK-38" edge="1">
          <mxGeometry relative="1" as="geometry">
            <mxPoint x="520" y="355" as="targetPoint" />
          </mxGeometry>
        </mxCell>
      </root>
    </mxGraphModel>
  </diagram>
</mxfile>
